<svg version="1.1" id="Layer_1" xmlns="http://www.w3.org/2000/svg" xmlns:xlink="http://www.w3.org/1999/xlink" x="0px" y="0px"
	 width="100%" viewBox="0 0 1024 1024" enable-background="new 0 0 1024 1024" xml:space="preserve">
<path fill="#000000" opacity="1.000000" stroke="none" 
	d="
M487.522827,500.497681 
	C500.062897,515.580444 512.385254,530.381287 524.622314,545.079712 
	C522.910156,547.234131 521.135132,546.945679 519.534973,546.954163 
	C509.872131,547.005737 500.208221,546.919983 490.546265,547.026245 
	C487.609924,547.058533 485.609833,545.985229 483.761505,543.696167 
	C467.959412,524.126099 452.108521,504.594574 436.132935,485.166107 
	C433.106445,481.485474 431.558197,477.665863 431.748047,472.867767 
	C431.998169,466.546967 431.925720,460.204773 431.745819,453.878815 
	C431.640320,450.169617 433.231171,448.830872 436.790436,448.874542 
	C443.786224,448.960480 450.785950,448.918091 457.781464,448.789490 
	C471.482056,448.537720 480.756500,441.238281 483.397980,428.755585 
	C486.328522,414.906982 480.632141,402.809509 468.548553,397.012360 
	C464.972198,395.296631 461.206940,394.968414 457.352875,394.964142 
	C446.356903,394.951904 435.355560,395.144409 424.367462,394.845856 
	C419.507782,394.713837 418.130432,396.416534 418.147552,401.176514 
	C418.312897,447.159241 418.270264,493.142761 418.284180,539.126038 
	C418.286530,546.867737 418.280487,546.903259 410.596649,546.964905 
	C404.599426,547.013062 398.592285,546.752441 392.606628,547.016479 
	C387.965546,547.221130 386.662476,545.374756 386.685944,540.857788 
	C386.846893,509.870087 386.650818,478.880371 386.872925,447.893463 
	C386.908508,442.927429 385.285522,439.474762 381.896393,436.081146 
	C364.239960,418.401337 346.751373,400.553955 329.200989,382.768219 
	C326.832581,380.367981 324.630249,377.911713 324.551239,374.238342 
	C324.451996,369.622559 326.287476,366.185089 330.476501,364.111572 
	C335.058716,361.843445 338.946930,363.293121 342.259918,366.622681 
	C349.308319,373.706451 356.179047,380.967224 363.242218,388.035950 
	C370.761688,395.561340 378.419220,402.948761 386.086090,410.464752 
	C387.433655,409.412842 386.734436,407.801361 386.740509,406.442657 
	C386.795746,394.114136 386.875763,381.783661 386.699127,369.457336 
	C386.639679,365.310486 388.265533,363.888306 392.296021,363.908844 
	C413.954163,364.019226 435.619720,363.634094 457.270111,364.060242 
	C485.109100,364.608185 509.246613,387.128204 513.523560,413.955627 
	C517.124756,436.543976 503.325439,468.512848 472.053497,477.179932 
	C471.427277,477.353485 470.806946,477.548370 469.172943,478.033325 
	C475.436157,485.695618 481.370636,492.955688 487.522827,500.497681 
z"/>
<path fill="#000000" opacity="1.000000" stroke="none" 
	d="
M618.125793,546.943115 
	C610.598633,546.783203 610.599426,546.783203 610.600220,539.568726 
	C610.603943,505.744049 610.678589,471.919189 610.585266,438.094757 
	C610.523682,415.772552 610.198914,393.451141 610.038391,371.129059 
	C609.990845,364.524841 610.407898,364.020508 617.144775,364.075897 
	C633.299377,364.208649 649.478882,363.236908 665.605164,364.515320 
	C695.345581,366.873016 717.891052,381.659210 733.583252,406.407623 
	C772.186707,467.289551 729.770203,535.623840 670.547729,546.037720 
	C665.663269,546.896606 660.588318,546.850342 655.598694,546.898438 
	C643.269531,547.017395 630.938599,546.946838 618.125793,546.943115 
M655.483276,395.067322 
	C653.483887,395.070160 651.484497,395.067688 649.485107,395.076752 
	C642.287964,395.109436 642.278809,395.110870 642.280579,402.175446 
	C642.287476,430.166382 642.300781,458.157349 642.311523,486.148285 
	C642.314697,494.478943 642.347717,502.809753 642.301697,511.140137 
	C642.287598,513.699524 642.472595,515.857849 645.886108,515.775024 
	C652.045410,515.625610 658.280273,516.157837 664.355713,515.391724 
	C695.957825,511.406555 720.216675,482.724304 716.760803,449.288422 
	C713.887512,421.489410 689.201599,394.120911 655.483276,395.067322 
z"/>
<path fill="#000000" opacity="1.000000" stroke="none" 
	d="
M771.097778,497.993774 
	C771.032227,455.678009 770.964233,413.861084 770.909302,372.044128 
	C770.898682,363.995667 770.976990,363.934052 778.924194,363.924957 
	C785.255066,363.917694 791.591125,364.084808 797.914978,363.875458 
	C802.040894,363.738892 803.422729,365.353790 803.398987,369.445282 
	C803.265442,392.435577 803.464539,415.428253 803.240112,438.417145 
	C803.192505,443.289825 804.308228,445.145630 809.571777,445.061218 
	C827.393066,444.775482 845.223938,444.881317 863.047852,445.100800 
	C867.448792,445.154968 868.771606,443.675873 868.737305,439.330780 
	C868.556885,416.507660 868.643311,393.682404 868.646851,370.857910 
	C868.647949,363.869232 868.662170,363.858093 875.415771,363.846527 
	C881.746643,363.835693 888.077454,363.843201 894.408325,363.858551 
	C901.166321,363.874939 901.272522,363.968597 901.275940,370.968903 
	C901.296997,414.618683 901.309143,458.268433 901.318787,501.918213 
	C901.321716,515.079773 901.182678,528.243164 901.377686,541.401733 
	C901.435425,545.297974 899.991272,546.877686 896.254761,546.854614 
	C888.925598,546.809448 881.595581,546.788147 874.266663,546.848694 
	C870.123901,546.882935 868.541077,545.239075 868.587280,540.847046 
	C868.797302,520.857056 868.555786,500.862457 868.744568,480.872040 
	C868.785278,476.555237 867.587341,475.039276 863.122742,475.095123 
	C844.965759,475.322449 826.803589,475.323303 808.645813,475.150391 
	C804.425171,475.110229 803.276428,476.568237 803.310181,480.646179 
	C803.477173,500.803497 803.256226,520.964233 803.457336,541.120972 
	C803.500977,545.491150 802.093018,547.103149 797.794006,546.988220 
	C790.468689,546.792297 783.134460,546.868774 775.804749,546.924988 
	C772.678772,546.948975 771.448486,545.757751 771.451721,542.457458 
	C771.466125,527.802612 771.239380,513.147583 771.097778,497.993774 
z"/>
<path fill="#000000" opacity="1.000000" stroke="none" 
	d="
M968.387329,536.934937 
	C968.388428,538.091553 968.391602,538.758118 968.389648,539.424622 
	C968.367676,546.987305 968.259460,546.948242 960.866150,546.623230 
	C954.545410,546.345398 948.203674,546.306213 941.878296,546.457275 
	C938.079712,546.547974 936.351318,545.299194 936.592468,541.300415 
	C936.832703,537.315918 936.654419,533.305359 936.637817,529.306274 
	C936.425598,478.156067 936.209106,427.005829 935.996155,375.855621 
	C935.988525,374.022797 936.100464,372.184326 935.993652,370.358032 
	C935.746704,366.136536 937.464294,364.380066 941.866333,364.610352 
	C947.681885,364.914673 953.526672,364.617859 959.357971,364.672607 
	C969.015930,364.763275 968.348511,363.725159 968.351685,373.480011 
	C968.368774,425.802002 968.370728,478.123993 968.378479,530.445984 
	C968.378784,532.445618 968.384094,534.445190 968.387329,536.934937 
z"/>
<path fill="#000000" opacity="1.000000" stroke="none" 
	d="
M145.912628,433.983368 
	C140.183441,421.361389 134.668365,409.055237 128.983139,396.828186 
	C127.612106,393.879547 127.438049,391.288605 128.853516,388.289764 
	C133.380630,378.698608 137.704300,369.011414 142.106522,359.361328 
	C142.671066,359.270905 143.235611,359.180450 143.800140,359.090027 
	C172.770264,421.169434 201.740372,483.248810 230.822296,545.567749 
	C226.192932,547.725952 222.316956,546.866577 218.577484,546.976196 
	C213.418411,547.127380 208.245590,546.856567 203.089737,547.054688 
	C199.616104,547.188232 197.633301,545.871948 196.168762,542.683044 
	C181.576004,510.909058 166.864594,479.189575 152.182404,447.456665 
	C150.155060,443.074951 148.104218,438.704102 145.912628,433.983368 
z"/>
<path fill="#000000" opacity="1.000000" stroke="none" 
	d="
M152.781326,486.303162 
	C154.563339,490.415863 156.817413,493.955536 157.437073,498.034271 
	C155.779602,499.823853 153.832748,499.203461 152.101593,499.211884 
	C139.436356,499.273468 126.769127,499.364502 114.106239,499.184418 
	C110.416824,499.131958 108.473900,500.381622 106.920692,503.797791 
	C101.061478,516.684692 94.760986,529.370483 88.845787,542.232849 
	C87.318939,545.552856 85.338997,547.106262 81.635544,547.027405 
	C73.973236,546.864258 66.304703,547.007263 58.638817,546.987976 
	C57.174950,546.984253 55.600025,547.214844 53.814648,545.081238 
	C74.470947,500.448090 95.300674,455.440186 116.130409,410.432281 
	C116.667542,410.447723 117.204681,410.463165 117.741821,410.478607 
	C129.363205,435.642059 140.984604,460.805511 152.781326,486.303162 
z"/>
<path fill="#000000" opacity="1.000000" stroke="none" 
	d="
M566.912659,434.774597 
	C574.388916,434.856445 574.387512,434.856445 574.422852,441.565948 
	C574.594666,474.181183 574.773071,506.796417 574.935181,539.411682 
	C574.972107,546.839600 574.782959,547.036133 567.495850,547.050903 
	C560.671265,547.064697 553.846252,546.962830 547.022034,547.006897 
	C543.883850,547.027161 542.620789,545.729187 542.625427,542.504395 
	C542.674927,508.047760 542.650635,473.590912 542.570618,439.134338 
	C542.563232,435.954895 543.704102,434.639221 546.949097,434.713562 
	C553.437683,434.862213 559.931824,434.767426 566.912659,434.774597 
z"/>
<path fill="#000000" opacity="1.000000" stroke="none" 
	d="
M369.876831,501.943298 
	C365.348816,501.717529 362.473907,499.235809 359.720978,496.488953 
	C343.932983,480.735992 328.135315,464.992737 312.329376,449.257721 
	C307.482147,444.432220 307.469604,444.453094 302.536163,449.287231 
	C298.731445,453.015289 295.013885,456.839905 291.079346,460.426086 
	C285.761810,465.272797 279.756012,465.513916 275.467590,461.299988 
	C271.419189,457.321899 271.027954,450.693420 275.643188,445.963379 
	C284.702545,436.678650 294.245087,427.861908 303.684784,418.954437 
	C305.721680,417.032379 308.559479,416.922516 311.237915,416.915039 
	C320.060760,416.890381 328.885254,417.037598 337.706055,416.909027 
	C341.837189,416.848816 343.066864,418.657196 343.250092,422.628479 
	C343.533752,428.775757 342.683350,434.220917 337.403168,438.125122 
	C333.455811,441.043762 334.547821,443.606384 337.550598,446.588837 
	C349.951538,458.905792 362.298737,471.279358 374.500824,483.792969 
	C381.437317,490.906525 379.459595,498.849579 369.876831,501.943298 
z"/>
<path fill="#000000" opacity="1.000000" stroke="none" 
	d="
M229.157593,461.907227 
	C232.108444,464.348175 235.027267,466.408295 230.301956,469.640594 
	C228.422882,470.925964 227.084152,471.023773 225.546097,469.409637 
	C220.845810,464.477020 215.585022,460.074738 211.508545,454.552002 
	C208.667694,450.703247 208.235565,446.760864 210.598007,442.438721 
	C212.304260,439.317108 214.525482,436.706665 217.052277,434.259064 
	C238.441757,413.540314 259.804504,392.793945 281.174957,372.055542 
	C282.249573,371.012695 283.279999,369.920105 284.401672,368.930786 
	C288.947418,364.921478 294.518768,364.655823 298.346191,368.227051 
	C302.337463,371.951141 302.561523,378.010071 298.350250,382.525513 
	C292.115082,389.211029 285.664276,395.705261 279.117767,402.088593 
	C261.488983,419.277985 243.758133,436.362701 226.081390,453.502960 
	C225.265579,454.294006 224.582108,455.221588 223.830002,456.093719 
	C224.880692,458.720245 227.223206,459.895935 229.157593,461.907227 
z"/>
<path fill="#000000" opacity="1.000000" stroke="none" 
	d="
M387.199738,644.587524 
	C377.317200,622.225037 386.905151,598.744812 408.672607,591.232971 
	C431.387085,583.394287 454.647522,595.336792 460.624451,617.906311 
	C466.685944,640.795227 449.263702,664.262085 425.611450,665.332764 
	C408.733154,666.096924 395.959015,659.523804 387.199738,644.587524 
M420.694641,656.472778 
	C423.338013,656.204712 425.998169,656.047363 428.622040,655.650269 
	C443.840149,653.347290 454.145660,638.448059 452.207306,623.257385 
	C450.164520,607.248352 435.156616,593.777588 413.582092,599.104492 
	C399.625000,602.550598 390.794189,616.525330 393.010071,630.739014 
	C395.365936,645.850830 403.360718,653.473511 420.694641,656.472778 
z"/>
<path fill="#000000" opacity="1.000000" stroke="none" 
	d="
M550.111450,422.253876 
	C542.517883,422.177063 542.303101,422.179657 542.217590,415.102539 
	C542.032471,399.781342 542.124268,384.457062 542.023499,369.134521 
	C541.998779,365.374969 543.484619,363.727142 547.396729,363.834198 
	C554.720032,364.034546 562.053162,363.988129 569.380127,363.888641 
	C572.895569,363.840912 574.447388,365.053009 574.414795,368.832947 
	C574.275391,384.987579 574.254089,401.145630 574.453003,417.299194 
	C574.504150,421.449768 572.764526,422.415283 569.082458,422.303864 
	C562.925476,422.117493 556.758789,422.253723 550.111450,422.253876 
z"/>
<path fill="#000000" opacity="1.000000" stroke="none" 
	d="
M183.694595,643.999634 
	C183.694489,625.388245 183.694489,607.276794 183.694489,589.165283 
	C184.179367,588.876953 184.664261,588.588562 185.149139,588.300232 
	C201.170807,606.225525 217.192459,624.150818 234.031952,642.991089 
	C234.927368,628.737122 234.607620,615.688721 234.364410,602.643066 
	C234.324127,600.482056 234.169464,598.322815 234.047943,596.163818 
	C233.852753,592.696594 234.655518,590.652893 238.943481,590.566284 
	C243.620468,590.471741 243.309464,593.038940 243.481598,596.249207 
	C244.524918,615.706970 242.960388,635.176575 243.860764,654.632812 
	C244.020782,658.090576 244.099457,661.596558 242.565384,666.315247 
	C226.183609,648.132202 210.318634,630.522766 194.205750,612.638184 
	C192.701813,615.373169 193.304642,617.561096 193.292953,619.635864 
	C193.219772,632.620605 193.160934,645.606812 193.297318,658.590454 
	C193.337036,662.371094 192.080887,664.049500 188.144455,664.035522 
	C184.048721,664.020935 183.629898,661.651428 183.686554,658.483459 
	C183.769897,653.823547 183.699570,649.160950 183.694595,643.999634 
z"/>
<path fill="#000000" opacity="1.000000" stroke="none" 
	d="
M658.034607,663.094482 
	C647.738403,664.622437 637.751587,663.843506 627.786804,664.006775 
	C622.628418,664.091309 617.466431,663.934814 612.306702,663.972107 
	C609.297913,663.993835 607.700439,662.930786 607.709229,659.611145 
	C607.766296,637.971436 607.754211,616.331299 607.672729,594.691650 
	C607.661377,591.679199 608.917847,590.687927 611.804199,590.495483 
	C623.615845,589.708130 635.427307,590.144409 647.239807,590.233704 
	C649.230164,590.248718 651.225769,590.361023 653.209717,590.255920 
	C656.256165,590.094482 658.310669,590.617920 658.376404,594.454285 
	C658.441345,598.239014 656.884644,599.375671 653.328796,599.333191 
	C643.009766,599.210022 632.684937,599.459351 622.369202,599.240234 
	C618.365112,599.155212 617.041199,600.594421 617.276978,604.459961 
	C617.529846,608.606079 617.514526,612.789856 617.278503,616.937988 
	C617.069519,620.609619 618.425537,622.000671 622.133545,621.921021 
	C630.619263,621.738647 639.111511,621.875610 647.600708,621.824768 
	C650.656189,621.806458 653.140686,621.950989 653.298157,626.141968 
	C653.466492,630.621460 650.807617,630.952942 647.570435,630.961914 
	C639.247437,630.984802 630.921936,631.127747 622.602600,630.962952 
	C618.852295,630.888733 617.046753,631.963989 617.280212,636.043762 
	C617.545959,640.689453 617.521057,645.371155 617.285522,650.020081 
	C617.097473,653.731995 618.507263,654.998169 622.187744,654.938782 
	C632.339050,654.775024 642.495178,654.873413 652.649109,654.923584 
	C659.127991,654.955627 660.003601,656.208984 658.034607,663.094482 
z"/>
<path fill="#000000" opacity="1.000000" stroke="none" 
	d="
M809.659790,623.999878 
	C809.656799,614.167236 809.727295,604.833740 809.611633,595.502502 
	C809.571655,592.277466 810.393372,590.576538 814.067688,590.607910 
	C817.545715,590.637634 819.356873,591.549500 819.285461,595.387451 
	C819.145935,602.883911 819.378174,610.387146 819.243713,617.883850 
	C819.185547,621.127258 819.953491,622.796021 823.658386,622.735413 
	C834.154602,622.563599 844.656860,622.596375 855.154175,622.738037 
	C858.745789,622.786438 859.734680,621.204712 859.668579,617.889587 
	C859.519104,610.393188 859.734863,602.889404 859.577026,595.393311 
	C859.506104,592.023865 860.591309,590.588745 864.141174,590.626221 
	C867.426331,590.660828 869.122620,591.595459 869.116516,595.135925 
	C869.079529,616.633972 869.100952,638.132202 869.161804,659.630249 
	C869.171997,663.232666 867.239075,664.089478 864.068909,664.104492 
	C860.885559,664.119507 859.583374,662.880188 859.626831,659.657898 
	C859.732483,651.826843 859.496033,643.989868 859.676514,636.161743 
	C859.762390,632.436340 858.331421,631.159363 854.694885,631.217102 
	C844.531372,631.378601 834.359863,631.475281 824.200195,631.233704 
	C820.015991,631.134216 819.136902,632.866760 819.240112,636.584534 
	C819.448181,644.078003 819.188721,651.583618 819.332336,659.080139 
	C819.401245,662.674133 818.083191,664.157349 814.389587,664.192871 
	C810.539001,664.229919 809.580872,662.480103 809.618835,658.996948 
	C809.744202,647.499146 809.662476,635.999146 809.659790,623.999878 
z"/>
<path fill="#000000" opacity="1.000000" stroke="none" 
	d="
M758.320740,594.588257 
	C764.058777,598.691711 764.192200,599.733704 760.407776,603.324280 
	C758.378479,605.249634 756.849426,604.947754 754.800659,603.423645 
	C747.496826,597.990173 739.058838,597.162720 730.497864,598.599304 
	C716.101013,601.015320 706.084290,615.020386 707.391663,630.183533 
	C708.734558,645.760132 719.944763,656.006409 735.577637,656.095764 
	C742.624207,656.136047 749.229248,654.674072 754.724670,650.165100 
	C758.177490,647.332092 760.047424,649.271790 762.075195,651.694641 
	C764.466125,654.551208 761.887756,655.873169 760.179688,657.260498 
	C748.845459,666.466797 730.651611,668.018921 717.813110,660.948059 
	C704.763428,653.760864 696.489685,638.799194 698.188538,625.460083 
	C700.554321,606.885071 710.253967,594.900085 726.227356,590.505066 
	C737.397461,587.431702 747.947021,588.697388 758.320740,594.588257 
z"/>
<path fill="#000000" opacity="1.000000" stroke="none" 
	d="
M306.050537,621.000122 
	C315.640472,622.490417 324.966095,621.704529 334.270630,621.766052 
	C338.287994,621.792664 339.515228,623.409180 339.323669,627.197815 
	C339.132904,630.969543 336.519958,630.870605 334.055786,630.902710 
	C326.225616,631.004944 318.388275,631.145874 310.564484,630.911621 
	C306.352997,630.785522 305.018280,632.398071 305.145630,636.468140 
	C305.374756,643.792114 305.120117,651.129944 305.215332,658.460022 
	C305.261627,662.022827 304.315155,664.079346 300.179321,664.087280 
	C296.123474,664.095032 295.618011,661.964661 295.628082,658.698547 
	C295.692780,637.703979 295.744202,616.708435 295.580627,595.714905 
	C295.550079,591.795654 296.935425,590.571777 300.708252,590.378906 
	C314.863678,589.655212 329.010162,590.352783 343.159332,590.315063 
	C346.299561,590.306641 347.032074,592.253418 347.008606,594.930359 
	C346.984619,597.664307 346.103424,599.337585 342.964020,599.321106 
	C332.300476,599.265015 321.629150,599.566528 310.975555,599.244446 
	C306.210266,599.100342 304.739655,600.803833 305.152802,605.278748 
	C305.625427,610.398010 304.608704,615.588989 306.050537,621.000122 
z"/>
<path fill="#000000" opacity="1.000000" stroke="none" 
	d="
M526.849548,636.000000 
	C526.839722,625.683105 526.831787,615.866211 526.820679,606.049316 
	C526.813049,599.317566 526.811096,599.320190 519.844116,599.325500 
	C515.018860,599.329163 510.192047,599.249695 505.368927,599.350525 
	C502.311432,599.414307 500.737122,598.371338 500.776367,595.043701 
	C500.813629,591.889771 502.040863,590.586243 505.248383,590.599548 
	C523.040527,590.673523 540.833374,590.676819 558.625427,590.590881 
	C561.925049,590.574951 563.065796,592.061584 563.006409,595.120728 
	C562.951050,597.972107 561.776855,599.380432 558.772461,599.326660 
	C553.450012,599.231323 548.102844,599.619019 542.806152,599.241516 
	C537.890991,598.891113 536.123352,600.314697 536.217834,605.554871 
	C536.535828,623.186340 536.299377,640.827271 536.367554,658.464294 
	C536.380493,661.820190 536.140015,664.201660 531.680603,664.173218 
	C527.315796,664.145386 526.841125,661.865601 526.876953,658.462830 
	C526.954041,651.142761 526.868835,643.821045 526.849548,636.000000 
z"/>
<path fill="#000000" opacity="1.000000" stroke="none" 
	d="
M246.577362,500.580902 
	C252.701233,494.920074 258.531982,489.462433 264.437500,484.086884 
	C266.027710,482.639343 267.729279,481.241760 269.580933,480.168243 
	C274.112732,477.540955 279.471588,478.274017 282.354218,481.698303 
	C285.603149,485.557709 285.992828,491.092133 282.278931,494.935944 
	C275.697235,501.747833 268.615997,508.079132 261.699463,514.564270 
	C259.272491,516.839905 256.819427,519.110718 254.195007,521.147644 
	C249.252121,524.984070 244.548050,525.024963 240.587433,521.505371 
	C236.679459,518.032593 236.282181,512.602478 239.574570,507.424957 
	C241.306137,504.701996 243.862320,502.810394 246.577362,500.580902 
z"/>
<path fill="#000000" opacity="1.000000" stroke="none" 
	d="
M287.004486,528.007935 
	C282.532074,532.258789 278.450287,536.418823 274.065155,540.229797 
	C269.153687,544.498169 263.737213,544.402649 259.821320,540.384033 
	C255.942459,536.403503 255.447739,530.262024 259.784576,525.969910 
	C268.985748,516.863464 278.541443,508.094971 288.275452,499.556915 
	C292.293274,496.032684 298.637451,497.035370 301.802399,500.773376 
	C305.172119,504.753113 305.226379,510.394409 301.367706,514.399475 
	C296.878326,519.059021 291.981354,523.325867 287.004486,528.007935 
z"/>
<path fill="#000000" opacity="1.000000" stroke="none" 
	d="
M238.292984,471.289459 
	C241.288956,468.380646 243.784760,465.438110 247.072372,463.389740 
	C251.376190,460.708252 255.798538,460.974487 258.999847,464.068359 
	C262.627960,467.574615 263.416534,473.125763 260.844055,477.321320 
	C258.804077,480.648376 255.660660,482.923004 252.862076,485.515076 
	C248.100891,489.924957 243.372498,494.378448 238.451126,498.604950 
	C233.088837,503.210266 228.156204,503.282166 224.283386,499.149567 
	C220.362671,494.965851 220.478897,488.375702 224.940155,483.826385 
	C229.128632,479.555176 233.661301,475.621490 238.292984,471.289459 
z"/>
<path fill="#000000" opacity="1.000000" stroke="none" 
	d="
M132.219772,627.000000 
	C132.230530,637.991821 132.166367,648.484619 132.293625,658.975037 
	C132.335846,662.454895 131.284317,664.188538 127.480721,664.208496 
	C123.688980,664.228455 122.639404,662.577942 122.655273,659.049500 
	C122.750359,637.899719 122.733086,616.749084 122.660645,595.599060 
	C122.649841,592.443298 123.303574,590.621643 127.033989,590.621094 
	C130.635269,590.620544 132.200363,591.848083 132.173355,595.524597 
	C132.097504,605.849060 132.192108,616.174805 132.219772,627.000000 
z"/>
<path fill="#000000" opacity="1.000000" stroke="none" 
	d="
M340.710205,491.417480 
	C345.366913,495.933044 349.856750,500.137512 354.142700,504.540436 
	C358.188354,508.696564 358.505676,513.778625 355.237549,517.474792 
	C351.747894,521.421509 346.332977,521.936035 341.848328,518.086243 
	C336.562927,513.548889 331.705200,508.513733 326.655334,503.701477 
	C325.102417,502.221588 325.318024,500.884766 326.805817,499.469238 
	C329.693878,496.721344 332.585693,493.971161 335.344086,491.095428 
	C337.195343,489.165405 338.782410,489.564301 340.710205,491.417480 
z"/>
<path fill="#000000" opacity="1.000000" stroke="none" 
	d="
M325.536133,537.087158 
	C317.818298,533.657288 313.092133,527.262207 307.459930,521.938904 
	C306.284943,520.828369 306.488098,519.567383 307.635986,518.462280 
	C307.874878,518.232239 308.124420,518.011841 308.348389,517.768005 
	C319.001678,506.168365 319.002289,506.167328 330.179718,517.198914 
	C331.242279,518.247620 332.288818,519.312622 333.339294,520.373474 
	C336.432404,523.497192 338.571838,526.904358 336.416473,531.465210 
	C334.320923,535.899536 330.846527,537.871765 325.536133,537.087158 
z"/>
<path fill="#000000" opacity="1.000000" stroke="none" 
	d="
M291.333801,533.369995 
	C291.831848,532.899048 292.041473,532.630005 292.306671,532.437622 
	C295.322601,530.249573 297.689178,524.999512 301.060608,526.044373 
	C305.366974,527.378906 308.570190,531.863525 311.184784,535.896912 
	C313.437286,539.371704 312.498047,543.066101 309.973633,546.039612 
	C307.224670,549.277649 303.605042,550.835632 299.298309,549.339844 
	C294.082886,547.528442 291.196747,543.146667 288.495361,538.791870 
	C286.901276,536.222290 289.746124,535.125488 291.333801,533.369995 
z"/>
</svg>